<mxfile host="65bd71144e">
    <diagram id="YH_rh-QThPqIuaBf3FN_" name="Page-1">
        <mxGraphModel dx="1759" dy="1749" grid="1" gridSize="10" guides="1" tooltips="1" connect="1" arrows="1" fold="1" page="1" pageScale="1" pageWidth="850" pageHeight="1100" math="0" shadow="0">
            <root>
                <mxCell id="0"/>
                <mxCell id="1" parent="0"/>
                <mxCell id="33" value="" style="ellipse;shape=cloud;whiteSpace=wrap;html=1;fontSize=16;" vertex="1" parent="1">
                    <mxGeometry x="425" y="50" width="360" height="270" as="geometry"/>
                </mxCell>
                <mxCell id="9" value="Own Services" style="text;strokeColor=none;align=center;fillColor=none;html=1;verticalAlign=middle;whiteSpace=wrap;rounded=0;" vertex="1" parent="1">
                    <mxGeometry x="40" y="120" width="120" height="30" as="geometry"/>
                </mxCell>
                <mxCell id="41" value="" style="edgeStyle=none;html=1;fontSize=16;endArrow=none;endFill=0;" edge="1" parent="1" source="10" target="15">
                    <mxGeometry relative="1" as="geometry"/>
                </mxCell>
                <mxCell id="10" value="Hasura" style="whiteSpace=wrap;html=1;" vertex="1" parent="1">
                    <mxGeometry x="10" y="210" width="80" height="30" as="geometry"/>
                </mxCell>
                <mxCell id="13" value="Client" style="whiteSpace=wrap;html=1;" vertex="1" parent="1">
                    <mxGeometry x="110" y="160" width="80" height="30" as="geometry"/>
                </mxCell>
                <mxCell id="14" value="Server" style="whiteSpace=wrap;html=1;" vertex="1" parent="1">
                    <mxGeometry x="110" y="210" width="80" height="30" as="geometry"/>
                </mxCell>
                <mxCell id="15" value="Prisma" style="whiteSpace=wrap;html=1;" vertex="1" parent="1">
                    <mxGeometry x="10" y="160" width="80" height="30" as="geometry"/>
                </mxCell>
                <mxCell id="18" value="Local" style="text;strokeColor=none;align=center;fillColor=none;html=1;verticalAlign=middle;whiteSpace=wrap;rounded=0;fontSize=16;" vertex="1" parent="1">
                    <mxGeometry x="40" y="260" width="120" height="30" as="geometry"/>
                </mxCell>
                <mxCell id="21" value="" style="group" vertex="1" connectable="0" parent="1">
                    <mxGeometry x="490" y="-220" width="210" height="250" as="geometry"/>
                </mxCell>
                <mxCell id="20" value="" style="ellipse;shape=cloud;whiteSpace=wrap;html=1;fontSize=16;" vertex="1" parent="21">
                    <mxGeometry width="210" height="250" as="geometry"/>
                </mxCell>
                <mxCell id="8" value="Third Party" style="text;strokeColor=none;align=center;fillColor=none;html=1;verticalAlign=middle;whiteSpace=wrap;rounded=0;" vertex="1" parent="21">
                    <mxGeometry x="45" y="70" width="120" height="30" as="geometry"/>
                </mxCell>
                <mxCell id="11" value="Postgres" style="whiteSpace=wrap;html=1;" vertex="1" parent="21">
                    <mxGeometry x="65" y="110" width="80" height="30" as="geometry"/>
                </mxCell>
                <mxCell id="12" value="Firebase" style="whiteSpace=wrap;html=1;" vertex="1" parent="21">
                    <mxGeometry x="65" y="160" width="80" height="30" as="geometry"/>
                </mxCell>
                <mxCell id="22" value="Own Services" style="text;strokeColor=none;align=center;fillColor=none;html=1;verticalAlign=middle;whiteSpace=wrap;rounded=0;" vertex="1" parent="1">
                    <mxGeometry x="540" y="110" width="120" height="30" as="geometry"/>
                </mxCell>
                <mxCell id="23" value="Hasura" style="whiteSpace=wrap;html=1;" vertex="1" parent="1">
                    <mxGeometry x="510" y="200" width="80" height="30" as="geometry"/>
                </mxCell>
                <mxCell id="24" value="Client" style="whiteSpace=wrap;html=1;" vertex="1" parent="1">
                    <mxGeometry x="610" y="150" width="80" height="30" as="geometry"/>
                </mxCell>
                <mxCell id="25" value="Server" style="whiteSpace=wrap;html=1;" vertex="1" parent="1">
                    <mxGeometry x="610" y="200" width="80" height="30" as="geometry"/>
                </mxCell>
                <mxCell id="26" value="Prisma" style="whiteSpace=wrap;html=1;" vertex="1" parent="1">
                    <mxGeometry x="510" y="150" width="80" height="30" as="geometry"/>
                </mxCell>
                <mxCell id="27" value="Dev" style="text;strokeColor=none;align=center;fillColor=none;html=1;verticalAlign=middle;whiteSpace=wrap;rounded=0;fontSize=16;" vertex="1" parent="1">
                    <mxGeometry x="540" y="250" width="120" height="30" as="geometry"/>
                </mxCell>
                <mxCell id="38" value=".env.dev&lt;br&gt;file" style="shape=tape;whiteSpace=wrap;html=1;fontSize=16;size=0.12500000000000283;" vertex="1" parent="1">
                    <mxGeometry x="710" y="50" width="85" height="90" as="geometry"/>
                </mxCell>
                <mxCell id="42" value="" style="ellipse;shape=cloud;whiteSpace=wrap;html=1;fontSize=16;" vertex="1" parent="1">
                    <mxGeometry x="1005" y="50" width="360" height="270" as="geometry"/>
                </mxCell>
                <mxCell id="45" value="" style="group" vertex="1" connectable="0" parent="1">
                    <mxGeometry x="1075" y="-210" width="210" height="250" as="geometry"/>
                </mxCell>
                <mxCell id="46" value="" style="ellipse;shape=cloud;whiteSpace=wrap;html=1;fontSize=16;" vertex="1" parent="45">
                    <mxGeometry width="210" height="250" as="geometry"/>
                </mxCell>
                <mxCell id="47" value="Third Party" style="text;strokeColor=none;align=center;fillColor=none;html=1;verticalAlign=middle;whiteSpace=wrap;rounded=0;" vertex="1" parent="45">
                    <mxGeometry x="45" y="70" width="120" height="30" as="geometry"/>
                </mxCell>
                <mxCell id="48" value="Postgres" style="whiteSpace=wrap;html=1;" vertex="1" parent="45">
                    <mxGeometry x="65" y="110" width="80" height="30" as="geometry"/>
                </mxCell>
                <mxCell id="49" value="Firebase" style="whiteSpace=wrap;html=1;" vertex="1" parent="45">
                    <mxGeometry x="65" y="160" width="80" height="30" as="geometry"/>
                </mxCell>
                <mxCell id="50" value="Own Services" style="text;strokeColor=none;align=center;fillColor=none;html=1;verticalAlign=middle;whiteSpace=wrap;rounded=0;" vertex="1" parent="1">
                    <mxGeometry x="1120" y="110" width="120" height="30" as="geometry"/>
                </mxCell>
                <mxCell id="51" value="Hasura" style="whiteSpace=wrap;html=1;" vertex="1" parent="1">
                    <mxGeometry x="1090" y="200" width="80" height="30" as="geometry"/>
                </mxCell>
                <mxCell id="52" value="Client" style="whiteSpace=wrap;html=1;" vertex="1" parent="1">
                    <mxGeometry x="1190" y="150" width="80" height="30" as="geometry"/>
                </mxCell>
                <mxCell id="53" value="Server" style="whiteSpace=wrap;html=1;" vertex="1" parent="1">
                    <mxGeometry x="1190" y="200" width="80" height="30" as="geometry"/>
                </mxCell>
                <mxCell id="54" value="Prisma" style="whiteSpace=wrap;html=1;" vertex="1" parent="1">
                    <mxGeometry x="1090" y="150" width="80" height="30" as="geometry"/>
                </mxCell>
                <mxCell id="55" value="Prod" style="text;strokeColor=none;align=center;fillColor=none;html=1;verticalAlign=middle;whiteSpace=wrap;rounded=0;fontSize=16;" vertex="1" parent="1">
                    <mxGeometry x="1120" y="250" width="120" height="30" as="geometry"/>
                </mxCell>
                <mxCell id="58" value=".env.prod&lt;br&gt;file" style="shape=tape;whiteSpace=wrap;html=1;fontSize=16;size=0.12500000000000283;" vertex="1" parent="1">
                    <mxGeometry x="1290" y="40" width="85" height="90" as="geometry"/>
                </mxCell>
                <mxCell id="59" value=".env.local&lt;br&gt;file" style="shape=tape;whiteSpace=wrap;html=1;fontSize=16;size=0.12500000000000283;" vertex="1" parent="1">
                    <mxGeometry x="210" y="60" width="85" height="90" as="geometry"/>
                </mxCell>
                <mxCell id="60" value="" style="group" vertex="1" connectable="0" parent="1">
                    <mxGeometry x="-10" y="-220" width="210" height="250" as="geometry"/>
                </mxCell>
                <mxCell id="61" value="" style="ellipse;shape=cloud;whiteSpace=wrap;html=1;fontSize=16;" vertex="1" parent="60">
                    <mxGeometry width="210" height="250" as="geometry"/>
                </mxCell>
                <mxCell id="62" value="Third Party" style="text;strokeColor=none;align=center;fillColor=none;html=1;verticalAlign=middle;whiteSpace=wrap;rounded=0;" vertex="1" parent="60">
                    <mxGeometry x="45" y="70" width="120" height="30" as="geometry"/>
                </mxCell>
                <mxCell id="63" value="Postgres" style="whiteSpace=wrap;html=1;" vertex="1" parent="60">
                    <mxGeometry x="65" y="110" width="80" height="30" as="geometry"/>
                </mxCell>
                <mxCell id="64" value="Firebase" style="whiteSpace=wrap;html=1;" vertex="1" parent="60">
                    <mxGeometry x="65" y="160" width="80" height="30" as="geometry"/>
                </mxCell>
                <mxCell id="74" style="edgeStyle=entityRelationEdgeStyle;html=1;fontSize=16;endArrow=classic;endFill=0;exitX=1;exitY=0;exitDx=0;exitDy=0;" edge="1" parent="1" source="69">
                    <mxGeometry relative="1" as="geometry">
                        <mxPoint x="190" y="400" as="targetPoint"/>
                    </mxGeometry>
                </mxCell>
                <mxCell id="75" style="edgeStyle=entityRelationEdgeStyle;html=1;entryX=0;entryY=0.5;entryDx=0;entryDy=0;fontSize=16;endArrow=classic;endFill=0;exitX=1;exitY=1;exitDx=0;exitDy=0;" edge="1" parent="1" source="80" target="72">
                    <mxGeometry relative="1" as="geometry"/>
                </mxCell>
                <mxCell id="69" value="Client" style="whiteSpace=wrap;html=1;" vertex="1" parent="1">
                    <mxGeometry y="520" width="80" height="40" as="geometry"/>
                </mxCell>
                <mxCell id="78" style="edgeStyle=entityRelationEdgeStyle;html=1;fontSize=16;endArrow=classic;endFill=0;" edge="1" parent="1" source="71" target="77">
                    <mxGeometry relative="1" as="geometry"/>
                </mxCell>
                <mxCell id="71" value="Lint" style="ellipse;whiteSpace=wrap;html=1;aspect=fixed;fontSize=16;" vertex="1" parent="1">
                    <mxGeometry x="190" y="360" width="80" height="80" as="geometry"/>
                </mxCell>
                <mxCell id="79" style="edgeStyle=entityRelationEdgeStyle;html=1;fontSize=16;endArrow=classic;endFill=0;" edge="1" parent="1" source="72" target="77">
                    <mxGeometry relative="1" as="geometry"/>
                </mxCell>
                <mxCell id="72" value="Build" style="ellipse;whiteSpace=wrap;html=1;aspect=fixed;fontSize=16;" vertex="1" parent="1">
                    <mxGeometry x="190" y="480" width="80" height="80" as="geometry"/>
                </mxCell>
                <mxCell id="76" value="new-branch" style="text;strokeColor=none;align=center;fillColor=none;html=1;verticalAlign=middle;whiteSpace=wrap;rounded=0;fontSize=16;" vertex="1" parent="1">
                    <mxGeometry x="-150" y="535" width="120" height="30" as="geometry"/>
                </mxCell>
                <mxCell id="85" style="edgeStyle=entityRelationEdgeStyle;html=1;fontSize=16;endArrow=classic;endFill=0;" edge="1" parent="1" source="77" target="84">
                    <mxGeometry relative="1" as="geometry"/>
                </mxCell>
                <mxCell id="77" value="Deploy" style="ellipse;whiteSpace=wrap;html=1;aspect=fixed;fontSize=16;" vertex="1" parent="1">
                    <mxGeometry x="385" y="480" width="80" height="80" as="geometry"/>
                </mxCell>
                <mxCell id="82" style="edgeStyle=entityRelationEdgeStyle;html=1;exitX=1;exitY=1;exitDx=0;exitDy=0;entryX=0;entryY=0.5;entryDx=0;entryDy=0;fontSize=16;endArrow=classic;endFill=0;" edge="1" parent="1" source="80" target="81">
                    <mxGeometry relative="1" as="geometry"/>
                </mxCell>
                <mxCell id="80" value="Server" style="whiteSpace=wrap;html=1;" vertex="1" parent="1">
                    <mxGeometry y="480" width="80" height="40" as="geometry"/>
                </mxCell>
                <mxCell id="83" style="edgeStyle=entityRelationEdgeStyle;html=1;entryX=0;entryY=0.5;entryDx=0;entryDy=0;fontSize=16;endArrow=classic;endFill=0;" edge="1" parent="1" source="81" target="77">
                    <mxGeometry relative="1" as="geometry"/>
                </mxCell>
                <mxCell id="81" value="Test" style="ellipse;whiteSpace=wrap;html=1;aspect=fixed;fontSize=16;" vertex="1" parent="1">
                    <mxGeometry x="190" y="600" width="80" height="80" as="geometry"/>
                </mxCell>
                <mxCell id="84" value="e2e" style="ellipse;whiteSpace=wrap;html=1;aspect=fixed;fontSize=16;" vertex="1" parent="1">
                    <mxGeometry x="500" y="480" width="80" height="80" as="geometry"/>
                </mxCell>
                <mxCell id="86" value="Hasura" style="whiteSpace=wrap;html=1;" vertex="1" parent="1">
                    <mxGeometry y="560" width="80" height="40" as="geometry"/>
                </mxCell>
                <mxCell id="87" value="Prisma" style="whiteSpace=wrap;html=1;" vertex="1" parent="1">
                    <mxGeometry y="600" width="80" height="40" as="geometry"/>
                </mxCell>
            </root>
        </mxGraphModel>
    </diagram>
</mxfile>